<svg width="28" height="33" viewBox="0 0 28 33" fill="none" xmlns="http://www.w3.org/2000/svg">
<path d="M23.2594 23.2593L13.625 32.8937L3.99062 23.2593C2.08514 21.3538 0.787504 18.926 0.261794 16.283C-0.263916 13.6401 0.00591453 10.9005 1.03716 8.4109C2.06841 5.92126 3.81476 3.79334 6.05538 2.29621C8.29599 0.799088 10.9302 0 13.625 0C16.3198 0 18.954 0.799088 21.1946 2.29621C23.4352 3.79334 25.1816 5.92126 26.2128 8.4109C27.2441 10.9005 27.5139 13.6401 26.9882 16.283C26.4625 18.926 25.1649 21.3538 23.2594 23.2593ZM13.625 19.6804C15.231 19.6804 16.7713 19.0424 17.9069 17.9068C19.0426 16.7712 19.6806 15.2309 19.6806 13.6249C19.6806 12.0188 19.0426 10.4786 17.9069 9.34295C16.7713 8.20732 15.231 7.56932 13.625 7.56932C12.019 7.56932 10.4787 8.20732 9.34308 9.34295C8.20744 10.4786 7.56945 12.0188 7.56945 13.6249C7.56945 15.2309 8.20744 16.7712 9.34308 17.9068C10.4787 19.0424 12.019 19.6804 13.625 19.6804ZM13.625 16.6527C12.822 16.6527 12.0519 16.3337 11.484 15.7658C10.9162 15.198 10.5972 14.4279 10.5972 13.6249C10.5972 12.8219 10.9162 12.0517 11.484 11.4839C12.0519 10.9161 12.822 10.5971 13.625 10.5971C14.428 10.5971 15.1981 10.9161 15.766 11.4839C16.3338 12.0517 16.6528 12.8219 16.6528 13.6249C16.6528 14.4279 16.3338 15.198 15.766 15.7658C15.1981 16.3337 14.428 16.6527 13.625 16.6527Z" fill="white"/>
</svg>
