<svg width="29" height="17" viewBox="0 0 29 17" fill="none" xmlns="http://www.w3.org/2000/svg">
<path fill-rule="evenodd" clip-rule="evenodd" d="M13.7776 15.9706H15.4608C15.4608 15.9706 15.9693 15.9177 16.2288 15.6528C16.4678 15.4095 16.4601 14.9526 16.4601 14.9526C16.4601 14.9526 16.4272 12.8138 17.4755 12.4989C18.5088 12.1886 19.8358 14.566 21.2422 15.4801C22.3057 16.1719 23.1139 16.0202 23.1139 16.0202L26.8745 15.9706C26.8745 15.9706 28.8418 15.8558 27.909 14.3911C27.8325 14.2713 27.3657 13.3076 25.1129 11.3274C22.7549 9.25488 23.0707 9.59011 25.9111 6.00508C27.641 3.82177 28.3326 2.48884 28.1166 1.91794C27.9105 1.3742 26.6383 1.51792 26.6383 1.51792L22.404 1.54289C22.404 1.54289 22.0901 1.50235 21.8573 1.63412C21.6298 1.76336 21.4834 2.06456 21.4834 2.06456C21.4834 2.06456 20.8133 3.75408 19.9195 5.19091C18.034 8.22278 17.2801 8.38279 16.972 8.19454C16.2552 7.75578 16.4341 6.43189 16.4341 5.49138C16.4341 2.55328 16.9047 1.32822 15.5178 1.0111C15.0575 0.905751 14.7188 0.836244 13.5417 0.825021C12.0309 0.810179 10.7521 0.829365 10.0281 1.16531C9.54638 1.38868 9.17479 1.88645 9.40111 1.91504C9.68094 1.95052 10.3148 2.07687 10.6508 2.5102C11.0847 3.06915 11.0694 4.32461 11.0694 4.32461C11.0694 4.32461 11.3187 7.78329 10.4872 8.213C9.91644 8.50768 9.1335 7.90602 7.45257 5.15543C6.59126 3.74647 5.94099 2.18909 5.94099 2.18909C5.94099 2.18909 5.8156 1.89803 5.59196 1.74236C5.32053 1.55375 4.9413 1.49366 4.9413 1.49366L0.917678 1.51864C0.917678 1.51864 0.313658 1.53457 0.0919288 1.78327C-0.105334 2.00446 0.0762547 2.46205 0.0762547 2.46205C0.0762547 2.46205 3.22634 9.44095 6.79312 12.9579C10.0636 16.1824 13.7776 15.9706 13.7776 15.9706Z" fill="white"/>
<path fill-rule="evenodd" clip-rule="evenodd" d="M13.7776 15.9706H15.4608C15.4608 15.9706 15.9693 15.9177 16.2288 15.6528C16.4678 15.4095 16.4601 14.9526 16.4601 14.9526C16.4601 14.9526 16.4272 12.8138 17.4755 12.4989C18.5088 12.1886 19.8358 14.566 21.2422 15.4801C22.3057 16.1719 23.1139 16.0202 23.1139 16.0202L26.8745 15.9706C26.8745 15.9706 28.8418 15.8558 27.909 14.3911C27.8325 14.2713 27.3657 13.3076 25.1129 11.3274C22.7549 9.25488 23.0707 9.59011 25.9111 6.00508C27.641 3.82177 28.3326 2.48884 28.1166 1.91794C27.9105 1.3742 26.6383 1.51792 26.6383 1.51792L22.404 1.54289C22.404 1.54289 22.0901 1.50235 21.8573 1.63412C21.6298 1.76336 21.4834 2.06456 21.4834 2.06456C21.4834 2.06456 20.8133 3.75408 19.9195 5.19091C18.034 8.22278 17.2801 8.38279 16.972 8.19454C16.2552 7.75578 16.4341 6.43189 16.4341 5.49138C16.4341 2.55328 16.9047 1.32822 15.5178 1.0111C15.0575 0.905751 14.7188 0.836244 13.5417 0.825021C12.0309 0.810179 10.7521 0.829365 10.0281 1.16531C9.54638 1.38868 9.17479 1.88645 9.40111 1.91504C9.68094 1.95052 10.3148 2.07687 10.6508 2.5102C11.0847 3.06915 11.0694 4.32461 11.0694 4.32461C11.0694 4.32461 11.3187 7.78329 10.4872 8.213C9.91644 8.50768 9.1335 7.90602 7.45257 5.15543C6.59126 3.74647 5.94099 2.18909 5.94099 2.18909C5.94099 2.18909 5.8156 1.89803 5.59196 1.74236C5.32053 1.55375 4.9413 1.49366 4.9413 1.49366L0.917678 1.51864C0.917678 1.51864 0.313658 1.53457 0.0919288 1.78327C-0.105334 2.00446 0.0762547 2.46205 0.0762547 2.46205C0.0762547 2.46205 3.22634 9.44095 6.79312 12.9579C10.0636 16.1824 13.7776 15.9706 13.7776 15.9706Z" fill="url(#paint0_linear_108_95)"/>
<defs>
<linearGradient id="paint0_linear_108_95" x1="28.16" y1="0.821564" x2="-1.82526" y2="6.65994" gradientUnits="userSpaceOnUse">
<stop stop-color="#FF0202"/>
<stop offset="1" stop-color="#7200FF"/>
</linearGradient>
</defs>
</svg>
