<svg width="24" height="20" viewBox="0 0 24 20" fill="none" xmlns="http://www.w3.org/2000/svg">
<path d="M23.4589 2.9976C24 5.136 24 9.6 24 9.6C24 9.6 24 14.064 23.4589 16.2024C23.1582 17.3844 22.2785 18.3144 21.1643 18.6288C19.1409 19.2 12.16 19.2 12.16 19.2C12.16 19.2 5.1827 19.2 3.15569 18.6288C2.03681 18.3096 1.15828 17.3808 0.861095 16.2024C0.320007 14.064 0.320007 9.6 0.320007 9.6C0.320007 9.6 0.320007 5.136 0.861095 2.9976C1.16183 1.8156 2.04154 0.8856 3.15569 0.5712C5.1827 -2.14577e-07 12.16 0 12.16 0C12.16 0 19.1409 -2.14577e-07 21.1643 0.5712C22.2832 0.8904 23.1617 1.8192 23.4589 2.9976V2.9976ZM9.79201 13.8L16.896 9.6L9.79201 5.4V13.8Z" fill="white"/>
<path d="M23.4589 2.9976C24 5.136 24 9.6 24 9.6C24 9.6 24 14.064 23.4589 16.2024C23.1582 17.3844 22.2785 18.3144 21.1643 18.6288C19.1409 19.2 12.16 19.2 12.16 19.2C12.16 19.2 5.1827 19.2 3.15569 18.6288C2.03681 18.3096 1.15828 17.3808 0.861095 16.2024C0.320007 14.064 0.320007 9.6 0.320007 9.6C0.320007 9.6 0.320007 5.136 0.861095 2.9976C1.16183 1.8156 2.04154 0.8856 3.15569 0.5712C5.1827 -2.14577e-07 12.16 0 12.16 0C12.16 0 19.1409 -2.14577e-07 21.1643 0.5712C22.2832 0.8904 23.1617 1.8192 23.4589 2.9976V2.9976ZM9.79201 13.8L16.896 9.6L9.79201 5.4V13.8Z" fill="url(#paint0_linear_108_94)"/>
<defs>
<linearGradient id="paint0_linear_108_94" x1="24" y1="0" x2="-1.73764" y2="3.33894" gradientUnits="userSpaceOnUse">
<stop stop-color="#FF0202"/>
<stop offset="1" stop-color="#7200FF"/>
</linearGradient>
</defs>
</svg>
