<svg width="50" height="50" viewBox="0 0 50 50" fill="none" xmlns="http://www.w3.org/2000/svg">
<path fill-rule="evenodd" clip-rule="evenodd" d="M43.7489 0H6.25108C4.59319 0 3.00321 0.658595 1.8309 1.8309C0.658595 3.00321 0 4.59319 0 6.25108V43.7489C0 45.4068 0.658595 46.9968 1.8309 48.1691C3.00321 49.3414 4.59319 50 6.25108 50H43.7489C45.4068 50 46.9968 49.3414 48.1691 48.1691C49.3414 46.9968 50 45.4068 50 43.7489V6.25108C50 4.59319 49.3414 3.00321 48.1691 1.8309C46.9968 0.658595 45.4068 0 43.7489 0ZM46.8831 43.7489C46.8831 44.5779 46.5538 45.3729 45.9677 45.959C45.3815 46.5452 44.5865 46.8745 43.7576 46.8745H6.25108C5.42214 46.8745 4.62715 46.5452 4.04099 45.959C3.45484 45.3729 3.12554 44.5779 3.12554 43.7489V6.25108C3.12554 5.42214 3.45484 4.62715 4.04099 4.04099C4.62715 3.45484 5.42214 3.12554 6.25108 3.12554H43.7489C44.1601 3.1244 44.5675 3.2044 44.9477 3.36096C45.3279 3.51753 45.6735 3.74757 45.9646 4.03792C46.2558 4.32826 46.4868 4.67321 46.6444 5.05298C46.802 5.43276 46.8831 5.8399 46.8831 6.25108V43.7489ZM19.8583 12.0444C19.5652 12.3375 19.1677 12.5022 18.7533 12.5022H14.6466L22.1393 19.9687L19.9253 22.2087L12.4588 14.7421V18.7533C12.4588 19.1677 12.2941 19.5652 12.001 19.8583C11.708 20.1514 11.3105 20.316 10.896 20.316C10.4815 20.316 10.084 20.1514 9.79094 19.8583C9.49787 19.5652 9.33322 19.1677 9.33322 18.7533V10.9394C9.32986 10.7318 9.3725 10.5261 9.45806 10.337C9.54362 10.1478 9.66999 9.97998 9.82809 9.84546C9.97274 9.6972 10.1456 9.57935 10.3364 9.49883C10.5273 9.41832 10.7323 9.37677 10.9394 9.37663H18.7533C19.1677 9.37663 19.5652 9.54128 19.8583 9.83435C20.1514 10.1274 20.316 10.5249 20.316 10.9394C20.316 11.3539 20.1514 11.7514 19.8583 12.0444ZM19.9687 27.7826L12.5022 35.2492V31.2381C12.5022 31.0328 12.4617 30.8296 12.3832 30.64C12.3047 30.4504 12.1896 30.2781 12.0444 30.133C11.8993 29.9879 11.727 29.8728 11.5374 29.7942C11.3478 29.7157 11.1446 29.6753 10.9394 29.6753C10.7342 29.6753 10.531 29.7157 10.3414 29.7942C10.1517 29.8728 9.97947 29.9879 9.83435 30.133C9.68924 30.2781 9.57412 30.4504 9.49559 30.64C9.41705 30.8296 9.37663 31.0328 9.37663 31.2381V39.0519C9.37142 39.2598 9.41321 39.4661 9.49891 39.6555C9.5846 39.8449 9.71197 40.0126 9.87151 40.1459C10.0149 40.2957 10.1875 40.4146 10.3786 40.4953C10.5698 40.5759 10.7754 40.6165 10.9828 40.6147H18.7967C19.2111 40.6147 19.6086 40.45 19.9017 40.157C20.1948 39.8639 20.3594 39.4664 20.3594 39.0519C20.3594 38.6374 20.1948 38.2399 19.9017 37.9469C19.6086 37.6538 19.2111 37.4891 18.7967 37.4891H14.6466L22.1393 29.9965L19.9687 27.7826ZM39.0693 29.684C38.6555 29.6863 38.2593 29.8516 37.9668 30.1442C37.6742 30.4368 37.5088 30.833 37.5065 31.2467V35.2579L30.066 27.7826L27.8607 29.9965L35.362 37.4891H31.2554C30.841 37.4891 30.4435 37.6538 30.1504 37.9469C29.8573 38.2399 29.6927 38.6374 29.6927 39.0519C29.6927 39.4664 29.8573 39.8639 30.1504 40.157C30.4435 40.45 30.841 40.6147 31.2554 40.6147H39.0259C39.2332 40.6155 39.4385 40.5744 39.6294 40.4939C39.8204 40.4133 39.9931 40.2949 40.1372 40.1459C40.2928 40.0136 40.4172 39.8484 40.5012 39.6622C40.5853 39.476 40.627 39.2735 40.6234 39.0693V31.2554C40.6245 31.0502 40.5852 30.8468 40.5077 30.6567C40.4303 30.4667 40.3161 30.2938 40.1718 30.1478C40.0275 30.0019 39.8558 29.8858 39.6667 29.8062C39.4775 29.7267 39.2745 29.6851 39.0693 29.684ZM31.2554 9.37663H39.0172C39.2283 9.36867 39.4388 9.40383 39.6358 9.47996C39.8329 9.55609 40.0123 9.6716 40.1632 9.81941C40.3213 9.95394 40.4477 10.1218 40.5333 10.3109C40.6188 10.5001 40.6615 10.7058 40.6581 10.9134V18.7272C40.6581 19.1417 40.4935 19.5392 40.2004 19.8323C39.9073 20.1253 39.5098 20.29 39.0953 20.29C38.6809 20.29 38.2834 20.1253 37.9903 19.8323C37.6972 19.5392 37.5326 19.1417 37.5326 18.7272V14.7161L30.066 22.1827L27.8607 19.9687L35.362 12.5022H31.2554C30.841 12.5022 30.4435 12.3375 30.1504 12.0444C29.8573 11.7514 29.6927 11.3539 29.6927 10.9394C29.6927 10.5249 29.8573 10.1274 30.1504 9.83435C30.4435 9.54128 30.841 9.37663 31.2554 9.37663Z" fill="white"/>
</svg>
