<svg width="12" height="14" viewBox="0 0 12 14" fill="none" xmlns="http://www.w3.org/2000/svg">
<path d="M9.6025 9.60245L5.625 13.58L1.6475 9.60245C0.860839 8.81578 0.325117 7.8135 0.10808 6.72236C-0.108956 5.63122 0.00244178 4.50022 0.428187 3.47239C0.853932 2.44456 1.5749 1.56606 2.49993 0.947979C3.42495 0.329899 4.51249 0 5.625 0C6.73752 0 7.82505 0.329899 8.75008 0.947979C9.6751 1.56606 10.3961 2.44456 10.8218 3.47239C11.2476 4.50022 11.359 5.63122 11.1419 6.72236C10.9249 7.8135 10.3892 8.81578 9.6025 9.60245ZM5.625 8.12495C6.28804 8.12495 6.92393 7.86156 7.39277 7.39272C7.86161 6.92388 8.125 6.28799 8.125 5.62495C8.125 4.96191 7.86161 4.32603 7.39277 3.85718C6.92393 3.38834 6.28804 3.12495 5.625 3.12495C4.96196 3.12495 4.32608 3.38834 3.85724 3.85718C3.38839 4.32603 3.125 4.96191 3.125 5.62495C3.125 6.28799 3.38839 6.92388 3.85724 7.39272C4.32608 7.86156 4.96196 8.12495 5.625 8.12495ZM5.625 6.87495C5.29348 6.87495 4.97554 6.74325 4.74112 6.50883C4.5067 6.27441 4.375 5.95647 4.375 5.62495C4.375 5.29343 4.5067 4.97549 4.74112 4.74107C4.97554 4.50665 5.29348 4.37495 5.625 4.37495C5.95652 4.37495 6.27447 4.50665 6.50889 4.74107C6.74331 4.97549 6.875 5.29343 6.875 5.62495C6.875 5.95647 6.74331 6.27441 6.50889 6.50883C6.27447 6.74325 5.95652 6.87495 5.625 6.87495Z" fill="white"/>
</svg>
