<svg width="12" height="13" viewBox="0 0 12 13" fill="none" xmlns="http://www.w3.org/2000/svg">
<path d="M11.875 9.2625V11.4725C11.8751 11.6307 11.8151 11.7831 11.7072 11.8989C11.5994 12.0146 11.4516 12.0852 11.2937 12.0963C11.0206 12.115 10.7975 12.125 10.625 12.125C5.10188 12.125 0.625 7.64813 0.625 2.125C0.625 1.9525 0.634375 1.72938 0.65375 1.45625C0.664826 1.2984 0.735363 1.15063 0.851127 1.04276C0.966891 0.934879 1.11926 0.874928 1.2775 0.875H3.4875C3.56502 0.874922 3.63981 0.903662 3.69733 0.955638C3.75485 1.00761 3.791 1.07911 3.79875 1.15625C3.81313 1.3 3.82625 1.41438 3.83875 1.50125C3.96296 2.36808 4.2175 3.21115 4.59375 4.00188C4.65313 4.12688 4.61438 4.27625 4.50187 4.35625L3.15313 5.32C3.97778 7.24153 5.50909 8.77284 7.43062 9.5975L8.39313 8.25125C8.43247 8.19625 8.48986 8.1568 8.55531 8.13978C8.62076 8.12276 8.6901 8.12926 8.75125 8.15812C9.54189 8.53367 10.3847 8.78757 11.2513 8.91125C11.3381 8.92375 11.4525 8.9375 11.595 8.95125C11.672 8.95915 11.7434 8.99536 11.7952 9.05286C11.8471 9.11037 11.8757 9.18507 11.8756 9.2625H11.875Z" fill="white"/>
</svg>
