<svg width="44" height="25" viewBox="0 0 44 25" fill="none" xmlns="http://www.w3.org/2000/svg">
<path fill-rule="evenodd" clip-rule="evenodd" d="M21.5275 24.5166H24.1575C24.1575 24.5166 24.952 24.434 25.3576 24.0199C25.7309 23.6398 25.7189 22.926 25.7189 22.926C25.7189 22.926 25.6676 19.5841 27.3054 19.092C28.92 18.6073 30.9934 22.3219 33.1909 23.7501C34.8527 24.8311 36.1155 24.5941 36.1155 24.5941L41.9914 24.5166C41.9914 24.5166 45.0653 24.3373 43.6078 22.0486C43.4883 21.8614 42.759 20.3557 39.2389 17.2616C35.5546 14.0232 36.048 14.547 40.4861 8.94543C43.1891 5.53402 44.2696 3.45131 43.9321 2.55928C43.6102 1.70968 41.6223 1.93424 41.6223 1.93424L35.0062 1.97327C35.0062 1.97327 34.5158 1.90992 34.1521 2.11581C33.7966 2.31775 33.5679 2.78837 33.5679 2.78837C33.5679 2.78837 32.5207 5.42824 31.1242 7.67329C28.1781 12.4106 27.0002 12.6606 26.5188 12.3665C25.3988 11.6809 25.6783 9.61233 25.6783 8.14278C25.6783 3.55199 26.4136 1.63784 24.2465 1.14234C23.5273 0.977733 22.9981 0.869129 21.1589 0.851594C18.7983 0.828403 16.8002 0.858381 15.6689 1.3833C14.9162 1.73231 14.3356 2.51007 14.6892 2.55476C15.1265 2.61019 16.1169 2.8076 16.6419 3.48468C17.3199 4.35804 17.296 6.3197 17.296 6.3197C17.296 6.3197 17.6854 11.7239 16.3862 12.3953C15.4944 12.8558 14.2711 11.9156 11.6446 7.61786C10.2989 5.41636 9.28279 2.98295 9.28279 2.98295C9.28279 2.98295 9.08687 2.52817 8.73743 2.28494C8.31333 1.99024 7.72078 1.89634 7.72078 1.89634L1.43387 1.93537C1.43387 1.93537 0.49009 1.96026 0.143639 2.34886C-0.164584 2.69447 0.119148 3.40945 0.119148 3.40945C0.119148 3.40945 5.04115 14.314 10.6142 19.8092C15.7244 24.8475 21.5275 24.5166 21.5275 24.5166Z" fill="white"/>
</svg>
