<svg width="37" height="30" viewBox="0 0 37 30" fill="none" xmlns="http://www.w3.org/2000/svg">
<path d="M36.1545 4.68375C37 8.025 37 15 37 15C37 15 37 21.975 36.1545 25.3163C35.6847 27.1631 34.3101 28.6163 32.5692 29.1075C29.4076 30 18.5 30 18.5 30C18.5 30 7.59795 30 4.43075 29.1075C2.6825 28.6087 1.3098 27.1575 0.84545 25.3163C5.51343e-08 21.975 0 15 0 15C0 15 5.51343e-08 8.025 0.84545 4.68375C1.31535 2.83688 2.6899 1.38375 4.43075 0.8925C7.59795 -3.35276e-07 18.5 0 18.5 0C18.5 0 29.4076 -3.35276e-07 32.5692 0.8925C34.3175 1.39125 35.6902 2.8425 36.1545 4.68375ZM14.8 21.5625L25.9 15L14.8 8.4375V21.5625Z" fill="white"/>
</svg>
